<svg width="47" height="47" viewBox="0 0 47 47" fill="none" xmlns="http://www.w3.org/2000/svg">
<path d="M23.5 0C10.5162 0 0 10.7894 0 24.0963C0 34.7447 6.73275 43.7747 16.0681 46.9584C17.2431 47.1852 17.674 46.4394 17.674 45.7998C17.674 45.2276 17.6544 43.7114 17.6446 41.7027C11.1077 43.1556 9.729 38.4699 9.729 38.4699C8.65975 35.6888 7.11462 34.945 7.11462 34.945C4.98592 33.4512 7.27913 33.4819 7.27913 33.4819C9.63892 33.6495 10.8785 35.9647 10.8785 35.9647C12.974 39.649 16.3795 38.5844 17.7229 37.9693C17.9344 36.4101 18.5395 35.3496 19.2113 34.7468C13.9923 34.144 8.507 32.0719 8.507 22.8396C8.507 20.2097 9.41763 18.06 10.9255 16.3741C10.6612 15.7652 9.86804 13.3151 11.1312 9.99655C11.1312 9.99655 13.0993 9.35082 17.5937 12.4671C19.4737 11.9317 21.4712 11.666 23.4687 11.6538C25.4662 11.666 27.4637 11.9317 29.3437 12.4671C33.8087 9.35082 35.7768 9.99655 35.7768 9.99655C37.0399 13.3151 36.2468 15.7652 36.0118 16.3741C37.5099 18.06 38.4205 20.2097 38.4205 22.8396C38.4205 32.0964 32.9274 34.1338 27.6987 34.7263C28.5212 35.4497 29.2849 36.9271 29.2849 39.1852C29.2849 42.4097 29.2555 45.0008 29.2555 45.7834C29.2555 46.4149 29.6668 47.1689 30.8712 46.9278C40.2731 43.7645 47 34.7284 47 24.0963C47 10.7894 36.4779 0 23.5 0Z" fill="#3983AA"/>
</svg>
