<svg width="47" height="47" viewBox="0 0 47 47" fill="none" xmlns="http://www.w3.org/2000/svg">
<path d="M27.998 23.5C27.998 25.9843 25.9843 27.998 23.5 27.998C21.0157 27.998 19.002 25.9843 19.002 23.5C19.002 21.0157 21.0157 19.002 23.5 19.002C25.9843 19.002 27.998 21.0157 27.998 23.5Z" fill="#3983AA"/>
<path d="M34.0193 15.5416C33.8031 14.9557 33.4582 14.4254 33.0099 13.99C32.5746 13.5418 32.0446 13.1969 31.4584 12.9806C30.9829 12.796 30.2686 12.5761 28.9529 12.5163C27.5297 12.4514 27.103 12.4374 23.5 12.4374C19.8966 12.4374 19.4699 12.451 18.0471 12.5159C16.7314 12.5761 16.0168 12.796 15.5416 12.9806C14.9554 13.1969 14.425 13.5418 13.9901 13.99C13.5418 14.4254 13.1969 14.9553 12.9803 15.5416C12.7956 16.0171 12.5758 16.7318 12.5159 18.0474C12.451 19.4702 12.437 19.8969 12.437 23.5003C12.437 27.1034 12.451 27.5301 12.5159 28.9533C12.5758 30.2689 12.7956 30.9832 12.9803 31.4587C13.1969 32.045 13.5415 32.575 13.9897 33.0103C14.425 33.4585 14.955 33.8035 15.5413 34.0197C16.0168 34.2047 16.7314 34.4245 18.0471 34.4844C19.4699 34.5493 19.8963 34.5629 23.4996 34.5629C27.1034 34.5629 27.5301 34.5493 28.9526 34.4844C30.2682 34.4245 30.9829 34.2047 31.4584 34.0197C32.6352 33.5657 33.5654 32.6356 34.0193 31.4587C34.204 30.9832 34.4238 30.2689 34.4841 28.9533C34.549 27.5301 34.5626 27.1034 34.5626 23.5003C34.5626 19.8969 34.549 19.4702 34.4841 18.0474C34.4242 16.7318 34.2044 16.0171 34.0193 15.5416ZM23.5 30.4292C19.6729 30.4292 16.5704 27.3271 16.5704 23.5C16.5704 19.6728 19.6729 16.5707 23.5 16.5707C27.3268 16.5707 30.4292 19.6728 30.4292 23.5C30.4292 27.3271 27.3268 30.4292 23.5 30.4292ZM30.7032 17.9161C29.8089 17.9161 29.0838 17.1911 29.0838 16.2968C29.0838 15.4025 29.8089 14.6774 30.7032 14.6774C31.5975 14.6774 32.3225 15.4025 32.3225 16.2968C32.3222 17.1911 31.5975 17.9161 30.7032 17.9161Z" fill="#3983AA"/>
<path d="M23.5 0C10.5233 0 0 10.5233 0 23.5C0 36.4767 10.5233 47 23.5 47C36.4767 47 47 36.4767 47 23.5C47 10.5233 36.4767 0 23.5 0ZM36.9127 29.0634C36.8475 30.4999 36.6191 31.4806 36.2856 32.339C35.5846 34.1517 34.1517 35.5846 32.339 36.2856C31.4809 36.6191 30.4999 36.8471 29.0638 36.9127C27.6248 36.9784 27.1651 36.9941 23.5004 36.9941C19.8353 36.9941 19.376 36.9784 17.9366 36.9127C16.5005 36.8471 15.5194 36.6191 14.6613 36.2856C13.7606 35.9467 12.9452 35.4157 12.271 34.729C11.5847 34.0552 11.0536 33.2394 10.7148 32.339C10.3813 31.4809 10.1529 30.4999 10.0876 29.0638C10.0213 27.6244 10.0059 27.1647 10.0059 23.5C10.0059 19.8353 10.0213 19.3756 10.0873 17.9366C10.1525 16.5001 10.3806 15.5194 10.7141 14.661C11.0529 13.7606 11.5843 12.9448 12.271 12.271C12.9448 11.5843 13.7606 11.0533 14.661 10.7144C15.5194 10.3809 16.5001 10.1529 17.9366 10.0873C19.3756 10.0216 19.8353 10.0059 23.5 10.0059C27.1647 10.0059 27.6244 10.0216 29.0634 10.0876C30.4999 10.1529 31.4806 10.3809 32.339 10.7141C33.2394 11.0529 34.0552 11.5843 34.7293 12.271C35.4157 12.9452 35.9471 13.7606 36.2856 14.661C36.6194 15.5194 36.8475 16.5001 36.9131 17.9366C36.9787 19.3756 36.9941 19.8353 36.9941 23.5C36.9941 27.1647 36.9787 27.6244 36.9127 29.0634Z" fill="#3983AA"/>
</svg>
