<svg width="13" height="13" viewBox="0 0 13 13" fill="none" xmlns="http://www.w3.org/2000/svg">
<g clip-path="url(#clip0)">
<path d="M12.4091 0H7.68182C7.35547 0 7.0909 0.26457 7.0909 0.590916C7.0909 0.917262 7.35547 1.18183 7.68182 1.18183H10.9825L4.90038 7.264C4.6696 7.49478 4.6696 7.86889 4.90038 8.09966C5.01573 8.21504 5.16695 8.27272 5.31818 8.27272C5.46941 8.27272 5.62066 8.21506 5.73603 8.09964L11.8182 2.01749V5.31819C11.8182 5.64454 12.0828 5.90911 12.4091 5.90911C12.7355 5.90911 13 5.64454 13 5.31819V0.590916C13 0.26457 12.7354 0 12.4091 0Z" fill="white"/>
<path d="M10.0454 5.90914C9.7191 5.90914 9.45453 6.17371 9.45453 6.50005V11.8182H1.18181V3.5455H6.5C6.82635 3.5455 7.09092 3.28093 7.09092 2.95458C7.09092 2.62824 6.82635 2.36369 6.5 2.36369H0.590916C0.26457 2.36369 0 2.62826 0 2.95461V12.4092C0 12.7355 0.26457 13.0001 0.590916 13.0001H10.0455C10.3718 13.0001 10.6364 12.7355 10.6364 12.4091V6.50005C10.6364 6.17371 10.3718 5.90914 10.0454 5.90914Z" fill="white"/>
</g>
<defs>
<clipPath id="clip0">
<rect width="13" height="13" fill="white"/>
</clipPath>
</defs>
</svg>
