<svg width="47" height="47" viewBox="0 0 47 47" fill="none" xmlns="http://www.w3.org/2000/svg">
<path d="M23.5 47C36.4787 47 47 36.4787 47 23.5C47 10.5213 36.4787 0 23.5 0C10.5213 0 0 10.5213 0 23.5C0 36.4787 10.5213 47 23.5 47Z" fill="#3983AA"/>
<path d="M10.7532 22.9909L33.4111 14.2547C34.4628 13.8748 35.3812 14.5113 35.0405 16.1015L35.0424 16.0995L31.1845 34.2748C30.8986 35.5634 30.1329 35.8767 29.0617 35.2696L23.1867 30.9397L20.353 33.6697C20.0396 33.983 19.7752 34.2474 19.1682 34.2474L19.5853 28.2686L30.4736 18.4319C30.9475 18.0147 30.3679 17.7797 29.7432 18.1949L16.2875 26.6667L10.4869 24.8572C9.22767 24.4577 9.20025 23.598 10.7532 22.9909Z" fill="white"/>
</svg>
