<?xml version="1.0" standalone="no"?>
<!DOCTYPE svg PUBLIC "-//W3C//DTD SVG 20010904//EN"
 "http://www.w3.org/TR/2001/REC-SVG-20010904/DTD/svg10.dtd">
<svg version="1.0" xmlns="http://www.w3.org/2000/svg"
 width="512.000000pt" height="512.000000pt" viewBox="0 0 512.000000 512.000000"
 preserveAspectRatio="xMidYMid meet">
<metadata>
Created by potrace 1.11, written by Peter Selinger 2001-2013
</metadata>
<g transform="translate(0.000000,512.000000) scale(0.100000,-0.100000)"
fill="#000000" stroke="none">
<path d="M1280 4300 c-4 -3 -8 -803 -8 -1778 l0 -1772 806 1 c628 0 829 4 907
14 200 28 369 77 515 150 74 37 191 104 200 115 3 3 21 17 40 30 167 117 344
345 441 569 35 83 82 221 94 278 18 85 45 248 51 313 9 94 9 497 0 608 -38
467 -235 878 -547 1138 -42 35 -82 64 -88 64 -6 0 -11 5 -11 10 0 6 -7 10 -15
10 -8 0 -15 5 -15 10 0 6 -7 10 -15 10 -8 0 -15 3 -15 8 0 4 -17 15 -37 25
-21 10 -64 31 -96 47 -79 41 -236 94 -332 114 -116 24 -113 23 -195 32 -82 8
-1666 12 -1680 4z m1190 -394 c360 -51 627 -248 777 -573 36 -77 70 -175 79
-227 3 -16 7 -32 9 -36 5 -8 23 -116 33 -195 9 -79 9 -591 -1 -680 -24 -224
-75 -389 -171 -559 -138 -241 -385 -418 -659 -472 -91 -17 -143 -24 -219 -28
l-88 -5 0 1395 0 1395 108 -6 c59 -3 118 -7 132 -9z"/>
</g>
</svg>
